<svg width="21" height="20" viewBox="0 0 21 20" fill="none" xmlns="http://www.w3.org/2000/svg">
<rect width="20" height="20" transform="translate(0.666504)" fill="white" fill-opacity="0.01"/>
<path d="M18.5055 15.5861C18.2117 16.2848 17.864 16.928 17.4611 17.5193C16.9119 18.3255 16.4622 18.8835 16.1156 19.1934C15.5784 19.702 15.0028 19.9625 14.3865 19.9773C13.944 19.9773 13.4103 19.8477 12.7892 19.5847C12.166 19.323 11.5933 19.1934 11.0696 19.1934C10.5204 19.1934 9.93136 19.323 9.30133 19.5847C8.67033 19.8477 8.16201 19.9847 7.77337 19.9983C7.1823 20.0242 6.59316 19.7563 6.0051 19.1934C5.62976 18.8563 5.16029 18.2786 4.59789 17.4601C3.99448 16.586 3.49839 15.5725 3.10974 14.417C2.69352 13.1689 2.48486 11.9603 2.48486 10.7902C2.48486 9.44984 2.76618 8.29383 3.32967 7.32509C3.77251 6.54696 4.36166 5.93316 5.09902 5.48255C5.83637 5.03195 6.63309 4.80233 7.49109 4.78763C7.96055 4.78763 8.5762 4.93714 9.34126 5.23096C10.1042 5.52576 10.594 5.67526 10.8088 5.67526C10.9693 5.67526 11.5135 5.50045 12.436 5.15195C13.3084 4.82874 14.0447 4.69492 14.6479 4.74764C16.2823 4.88343 17.5102 5.54675 18.3269 6.74177C16.8651 7.6536 16.142 8.93072 16.1564 10.5691C16.1696 11.8452 16.6193 12.9071 17.503 13.7503C17.9036 14.1417 18.3509 14.4441 18.8485 14.6589C18.7406 14.9812 18.6267 15.2898 18.5055 15.5861ZM14.757 0.400114C14.757 1.40034 14.402 2.33425 13.6945 3.19867C12.8407 4.22629 11.808 4.8201 10.6881 4.7264C10.6739 4.60641 10.6656 4.48011 10.6656 4.3474C10.6656 3.38718 11.0716 2.35956 11.7927 1.51934C12.1527 1.09392 12.6105 0.74019 13.1657 0.458013C13.7197 0.180046 14.2438 0.0263242 14.7366 0C14.751 0.133715 14.757 0.267438 14.757 0.400101V0.400114Z" fill="white"/>
</svg>
