<svg width="20" height="20" viewBox="0 0 20 20" fill="none" xmlns="http://www.w3.org/2000/svg">
<g clip-path="url(#clip0_1312_35198)">
<rect width="20" height="20" fill="white" fill-opacity="0.01"/>
<path d="M19.8052 10.2312C19.8052 9.55141 19.7501 8.86797 19.6325 8.19922H10.2002V12.05H15.6016C15.3775 13.292 14.6573 14.3907 13.6027 15.0888V17.5874H16.8252C18.7176 15.8457 19.8052 13.2736 19.8052 10.2312Z" fill="#4285F4"/>
<path d="M10.1999 19.9998C12.897 19.9998 15.1714 19.1143 16.8286 17.5857L13.6061 15.0871C12.7096 15.697 11.5521 16.0424 10.2036 16.0424C7.59474 16.0424 5.38272 14.2824 4.58904 11.916H1.26367V14.4918C2.96127 17.8686 6.41892 19.9998 10.1999 19.9998Z" fill="#34A853"/>
<path d="M4.58564 11.9163C4.16676 10.6743 4.16676 9.32947 4.58564 8.0875V5.51172H1.26395C-0.154389 8.33737 -0.154389 11.6664 1.26395 14.4921L4.58564 11.9163Z" fill="#FBBC04"/>
<path d="M10.1999 3.95805C11.6256 3.936 13.0035 4.47247 14.036 5.45722L16.8911 2.60218C15.0833 0.904587 12.6838 -0.0287217 10.1999 0.000673888C6.41892 0.000673888 2.96127 2.13185 1.26367 5.51234L4.58537 8.08813C5.37538 5.71811 7.59107 3.95805 10.1999 3.95805Z" fill="#EA4335"/>
</g>
<defs>
<clipPath id="clip0_1312_35198">
<rect width="20" height="20" fill="white"/>
</clipPath>
</defs>
</svg>
